<svg width="48" height="44" viewBox="0 0 48 44" fill="none" xmlns="http://www.w3.org/2000/svg">
<path d="M26.25 24.25H21.75C17.1562 24.25 13.5 27.9531 13.5 32.5C13.5 33.3438 14.1562 34 15 34H33C33.7969 34 34.5 33.3438 34.5 32.5C34.5 27.9531 30.7969 24.25 26.25 24.25ZM15.75 31.75C16.125 28.7969 18.6562 26.5 21.75 26.5H26.25C29.2969 26.5 31.8281 28.7969 32.2031 31.75H15.75ZM24 22C27.2812 22 30 19.3281 30 16C30 12.7188 27.2812 10 24 10C20.6719 10 18 12.7188 18 16C18 19.3281 20.6719 22 24 22ZM24 12.25C26.0625 12.25 27.75 13.9375 27.75 16C27.75 18.1094 26.0625 19.75 24 19.75C21.8906 19.75 20.25 18.1094 20.25 16C20.25 13.9375 21.8906 12.25 24 12.25Z" fill="black"/>
</svg>
