<svg width="36" height="34" viewBox="0 0 36 34" fill="none" xmlns="http://www.w3.org/2000/svg">
<rect width="36" height="33.75" rx="5" fill="white"/>
<path d="M30.5506 25.6891L28.5 6.39547C28.5 5.18248 27.5602 4.20001 26.4 4.20001H18H9.59996C8.43971 4.20001 7.49996 5.18248 7.49996 6.39547L5.44931 25.6891C5.41886 25.8395 5.39996 25.9943 5.39996 26.1546C5.39996 27.3675 6.33971 28.35 7.49996 28.35H18H28.5C29.6602 28.35 30.6 27.3675 30.6 26.1546C30.6 25.9943 30.5811 25.8395 30.5506 25.6891ZM23.25 9.58766V10.7864C23.25 13.8128 20.8948 16.275 18 16.275C15.1051 16.275 12.75 13.8128 12.75 10.7864V9.58766C12.1399 9.36153 11.7 8.75778 11.7 8.04206C11.7 7.13314 12.4056 6.39547 13.275 6.39547C14.1444 6.39547 14.85 7.13314 14.85 8.04206V10.7864C14.85 12.602 16.2633 14.0796 18 14.0796C19.7367 14.0796 21.15 12.602 21.15 10.7864V8.04206C21.15 7.13314 21.8556 6.39547 22.725 6.39547C23.5944 6.39547 24.3 7.13314 24.3 8.04206C24.3 8.75778 23.86 9.36153 23.25 9.58766Z" fill="black"/>
</svg>
