<svg width="21" height="21" viewBox="0 0 21 21" fill="none" xmlns="http://www.w3.org/2000/svg">
<path d="M0.5 10.3828C0.5 10.8906 0.695312 11.3594 1.04688 11.7109L9.28906 19.9531C10.0312 20.6953 11.2422 20.6953 11.9453 19.9531L19.9141 11.9844C20.6562 11.2812 20.6562 10.0703 19.9141 9.32812L11.6719 1.08594C11.3203 0.734375 10.8516 0.5 10.3438 0.5H2.375C1.32031 0.5 0.5 1.35938 0.5 2.375V10.3828ZM4.875 3C5.89062 3 6.75 3.85938 6.75 4.875C6.75 5.92969 5.89062 6.75 4.875 6.75C3.82031 6.75 3 5.92969 3 4.875C3 3.85938 3.82031 3 4.875 3Z" fill="black"/>
</svg>
